<?xml version="1.0" encoding="utf-8"?>
<!-- Generator: Adobe Illustrator 27.0.1, SVG Export Plug-In . SVG Version: 6.00 Build 0)  -->
<svg version="1.1" id="Layer_1" xmlns="http://www.w3.org/2000/svg" xmlns:xlink="http://www.w3.org/1999/xlink" x="0px" y="0px"
	 viewBox="0 0 360 360" style="enable-background:new 0 0 360 360;" xml:space="preserve">
<style type="text/css">
	.st0{fill:#2E808C;}
	.st1{fill:#F8961D;}
	.st2{fill:#C67529;}
</style>
<polygon class="st0" points="140.41,162.66 106.12,233.83 106.52,233.83 92.49,263.5 122.96,259.29 139,285.56 187.52,185.32 "/>
<polygon class="st0" points="219.8,162.66 254.08,233.83 253.88,233.83 267.91,263.5 237.44,259.29 221.2,285.56 172.88,185.32 "/>
<path class="st1" d="M276.33,159.65c-27.47-3.81-45.11-19.85-51.92-27.27c-4.21-7.02-10.22-12.83-17.04-17.04
	c-7.42-7.02-23.26-24.66-27.27-51.92c-3.81,27.27-19.85,45.11-27.27,51.92c-7.02,4.21-12.83,10.22-17.04,17.04
	c-7.02,7.42-24.66,23.26-52.12,27.27c27.47,3.81,45.11,19.85,51.92,27.27c4.21,7.02,10.02,12.83,17.04,17.04
	c7.42,6.82,23.46,24.66,27.27,52.12c3.81-27.47,19.85-45.11,27.27-52.12c6.82-4.21,12.63-10.02,17.04-17.04
	C231.22,179.5,248.86,163.46,276.33,159.65z"/>
<circle class="st2" cx="180.1" cy="159.65" r="39.09"/>
</svg>
