<?xml version="1.0" encoding="utf-8"?>
<!-- Generator: Adobe Illustrator 27.0.1, SVG Export Plug-In . SVG Version: 6.00 Build 0)  -->
<svg version="1.1" id="Layer_1" xmlns="http://www.w3.org/2000/svg" xmlns:xlink="http://www.w3.org/1999/xlink" x="0px" y="0px"
	 viewBox="0 0 360 360" style="enable-background:new 0 0 360 360;" xml:space="preserve">
<style type="text/css">
	.st0{fill:#2E808C;}
	.st1{fill:#276072;}
	.st2{fill:#F8961D;}
</style>
<polygon class="st0" points="134.33,233.85 56.1,233.85 72.73,205.51 56.1,177.34 117.7,177.34 "/>
<polygon class="st1" points="134.33,233.85 134.33,215.86 101.41,215.86 "/>
<polygon class="st0" points="234.61,233.85 313.34,233.85 296.54,205.51 313.34,177.34 251.24,177.34 "/>
<polygon class="st1" points="234.61,233.85 234.61,215.86 267.7,215.86 "/>
<rect x="102.76" y="158" class="st0" width="164.26" height="57.86"/>
<path class="st2" d="M238.34,144.59c-2.55-6.11-20.53-7.81-20.53-7.81h0.17l-15.1-2.04l-6.79-13.57l0,0l0,0l-2.04-4.07
	c-2.71-4.92-7.47-12.56-11.88-12.9c-4.41,0.34-9.16,8.14-11.71,12.9l-8.65,17.82l-14.93,2.21h0.17c0,0-17.82,1.87-20.36,7.98
	c-1.53,6.45,12.05,18.33,12.05,18.33l-0.51-0.17l11.2,10.69l-2.55,15.27l0,0c0,0-3.39,17.65,1.7,21.72
	c3.56,2.04,10.69-0.85,15.61-3.22l4.58-2.38c0.51-0.34,0.68-0.51,0.68-0.51l0,0l13.24-7.13l13.41,6.96l-0.17-0.17
	c0,0,0.51,0.34,1.36,0.68l3.39,1.7c4.92,2.38,12.73,5.43,16.29,3.39c3.73-3.22,2.71-13.91,1.87-19l-3.22-17.99l10.86-10.69h-0.17
	C226.46,163.09,239.87,151.04,238.34,144.59z"/>
</svg>
