<svg id="svg" version="1.1" xmlns="http://www.w3.org/2000/svg" xmlns:xlink="http://www.w3.org/1999/xlink" width="400" height="113.9784946236559" viewBox="0, 0, 400,113.9784946236559"><g id="svgg"><path id="path0" d="M368.258 95.334 L 367.600 95.640 368.258 95.927 C 368.620 96.084,369.092 96.294,369.307 96.393 C 370.168 96.790,370.291 97.412,370.370 101.750 C 370.441 105.700,370.587 106.776,371.032 106.628 C 371.600 106.439,371.807 104.993,371.820 101.128 L 371.833 97.339 372.403 96.753 C 372.716 96.431,373.126 96.167,373.314 96.167 C 373.502 96.167,373.919 96.041,374.240 95.888 L 374.825 95.609 373.961 95.304 C 372.733 94.872,369.210 94.890,368.258 95.334 M387.500 95.289 C 386.418 95.962,385.774 97.146,385.710 98.579 C 385.648 99.974,385.643 99.957,386.562 101.338 C 386.997 101.992,387.247 102.855,387.830 105.722 C 387.979 106.453,388.280 106.860,388.395 106.486 C 388.945 104.691,389.000 104.107,389.000 100.098 C 389.000 95.056,388.818 94.471,387.500 95.289 M378.822 95.376 C 377.677 95.699,377.495 96.471,377.528 100.857 C 377.551 103.866,377.577 104.247,377.663 102.833 C 377.810 100.413,378.046 100.027,379.555 99.744 C 380.206 99.622,380.483 99.169,380.521 98.167 C 380.569 96.910,379.950 95.108,379.500 95.193 C 379.454 95.202,379.149 95.284,378.822 95.376 M388.357 101.000 L 388.248 104.583 388.121 102.565 C 387.999 100.633,387.786 99.521,387.326 98.402 C 387.137 97.942,387.151 97.849,387.453 97.547 C 387.639 97.361,387.895 96.805,388.021 96.313 L 388.250 95.418 388.358 96.417 C 388.417 96.967,388.417 99.029,388.357 101.000 M371.155 100.458 C 371.148 103.196,371.085 104.947,371.000 104.750 C 370.714 104.084,370.807 95.833,371.101 95.833 C 371.137 95.833,371.161 97.915,371.155 100.458 M379.703 97.963 C 379.649 98.115,379.568 98.125,379.415 97.999 C 379.251 97.863,379.246 97.730,379.393 97.416 L 379.583 97.009 379.680 97.379 C 379.734 97.583,379.744 97.846,379.703 97.963 M381.161 100.792 C 380.384 101.773,381.084 104.494,382.258 105.054 C 382.881 105.351,383.184 105.568,383.624 106.032 C 383.874 106.296,383.903 106.291,384.077 105.949 C 384.801 104.522,384.660 103.310,383.702 102.745 C 383.445 102.592,383.125 102.297,382.992 102.087 C 381.750 100.135,381.706 100.104,381.161 100.792 " stroke="none" fill="#c4cccc" fill-rule="evenodd"></path><path id="path1" d="M367.750 94.590 C 366.738 94.940,366.160 95.330,366.169 95.657 C 366.180 96.042,367.503 96.777,368.464 96.930 C 368.933 97.005,369.189 97.142,369.257 97.354 C 369.311 97.526,369.418 97.667,369.493 97.667 C 369.569 97.667,369.658 99.660,369.690 102.096 L 369.750 106.526 370.379 107.102 C 371.084 107.748,371.278 107.706,372.036 106.743 C 372.407 106.272,372.418 106.145,372.471 101.980 C 372.533 97.026,372.467 97.214,374.272 96.862 C 376.195 96.486,376.333 96.757,376.333 100.918 C 376.333 104.701,376.539 106.265,377.106 106.787 L 377.508 107.157 378.171 106.812 C 378.535 106.622,378.834 106.343,378.835 106.192 C 378.837 106.040,378.987 105.441,379.169 104.860 C 379.351 104.279,379.509 103.379,379.520 102.860 L 379.540 101.917 379.753 103.167 C 380.116 105.291,380.311 105.675,381.250 106.113 C 381.525 106.241,382.087 106.562,382.500 106.826 C 384.120 107.865,385.532 106.486,385.502 103.895 C 385.501 103.792,385.620 103.419,385.768 103.067 L 386.035 102.426 386.250 102.838 C 386.369 103.065,386.627 104.000,386.825 104.917 C 387.427 107.705,388.684 108.430,389.355 106.377 C 389.567 105.726,389.779 96.303,389.597 95.579 C 389.484 95.126,388.527 94.167,388.190 94.167 C 386.243 94.167,384.667 96.502,384.667 99.387 C 384.667 100.015,384.247 101.167,384.018 101.167 C 383.873 101.167,383.000 100.105,383.000 99.930 C 383.000 99.819,382.557 99.256,382.042 98.714 C 381.830 98.490,381.475 97.656,381.223 96.785 C 380.549 94.463,380.081 94.113,378.277 94.583 C 376.990 94.918,375.837 94.894,374.333 94.500 C 372.441 94.004,369.320 94.047,367.750 94.590 M373.961 95.304 L 374.825 95.609 374.240 95.888 C 373.919 96.041,373.502 96.167,373.314 96.167 C 373.126 96.167,372.716 96.431,372.403 96.753 L 371.833 97.339 371.820 101.128 C 371.807 104.993,371.600 106.439,371.032 106.628 C 370.587 106.776,370.441 105.700,370.370 101.750 C 370.291 97.412,370.168 96.790,369.307 96.393 C 369.092 96.294,368.620 96.084,368.258 95.927 L 367.600 95.640 368.258 95.334 C 369.210 94.890,372.733 94.872,373.961 95.304 M388.714 95.484 C 388.963 95.906,389.000 96.496,389.000 100.098 C 389.000 104.107,388.945 104.691,388.395 106.486 C 388.280 106.860,387.979 106.453,387.830 105.722 C 387.247 102.855,386.997 101.992,386.562 101.338 C 385.643 99.957,385.648 99.974,385.710 98.579 C 385.812 96.288,387.911 94.125,388.714 95.484 M379.837 95.380 C 380.877 96.214,380.663 99.537,379.555 99.744 C 378.046 100.027,377.810 100.413,377.663 102.833 C 377.577 104.247,377.551 103.866,377.528 100.857 C 377.492 96.034,377.663 95.540,379.500 95.193 C 379.546 95.184,379.697 95.269,379.837 95.380 M382.290 101.020 C 382.543 101.398,382.859 101.878,382.992 102.087 C 383.125 102.297,383.445 102.592,383.702 102.745 C 384.660 103.310,384.801 104.522,384.077 105.949 C 383.903 106.291,383.874 106.296,383.624 106.032 C 383.184 105.568,382.881 105.351,382.258 105.054 C 381.084 104.494,380.384 101.773,381.161 100.792 C 381.640 100.187,381.746 100.209,382.290 101.020 " stroke="none" fill="#848c94" fill-rule="evenodd"></path><path id="path2" d="M168.875 0.583 C 168.877 0.950,168.911 1.080,168.951 0.873 C 168.991 0.666,168.990 0.366,168.948 0.206 C 168.906 0.047,168.874 0.217,168.875 0.583 M278.000 0.488 C 278.000 0.757,278.104 1.081,278.232 1.208 C 278.360 1.336,278.501 1.585,278.546 1.762 C 278.619 2.047,278.630 2.042,278.647 1.718 C 278.658 1.517,278.592 1.307,278.500 1.250 C 278.408 1.193,278.333 0.889,278.333 0.573 C 278.333 0.258,278.258 0.000,278.167 0.000 C 278.075 0.000,278.000 0.220,278.000 0.488 M295.372 0.500 C 295.372 0.821,295.406 0.952,295.448 0.792 C 295.490 0.631,295.490 0.369,295.448 0.208 C 295.406 0.048,295.372 0.179,295.372 0.500 M295.667 0.500 C 295.667 0.775,295.742 1.000,295.833 1.000 C 295.925 1.000,296.000 0.775,296.000 0.500 C 296.000 0.225,295.925 0.000,295.833 0.000 C 295.742 0.000,295.667 0.225,295.667 0.500 M143.080 17.417 C 143.080 25.575,143.100 28.888,143.125 24.779 C 143.150 20.670,143.150 13.995,143.125 9.946 C 143.100 5.896,143.080 9.258,143.080 17.417 M48.372 28.167 C 48.372 28.488,48.406 28.619,48.448 28.458 C 48.490 28.298,48.490 28.035,48.448 27.875 C 48.406 27.715,48.372 27.846,48.372 28.167 M97.875 36.083 C 97.877 36.450,97.911 36.580,97.951 36.373 C 97.991 36.166,97.990 35.866,97.948 35.706 C 97.906 35.547,97.874 35.717,97.875 36.083 M48.372 37.333 C 48.372 37.654,48.406 37.785,48.448 37.625 C 48.490 37.465,48.490 37.202,48.448 37.042 C 48.406 36.881,48.372 37.012,48.372 37.333 M104.372 44.500 C 104.372 44.821,104.406 44.952,104.448 44.792 C 104.490 44.631,104.490 44.369,104.448 44.208 C 104.406 44.048,104.372 44.179,104.372 44.500 M65.792 67.789 C 66.181 67.824,66.819 67.824,67.208 67.789 C 67.598 67.754,67.279 67.725,66.500 67.725 C 65.721 67.725,65.402 67.754,65.792 67.789 M83.458 67.789 C 83.848 67.824,84.485 67.824,84.875 67.789 C 85.265 67.754,84.946 67.725,84.167 67.725 C 83.387 67.725,83.069 67.754,83.458 67.789 M112.458 67.791 C 113.856 67.819,116.144 67.819,117.542 67.791 C 118.940 67.763,117.796 67.741,115.000 67.741 C 112.204 67.741,111.060 67.763,112.458 67.791 M149.302 67.791 C 150.614 67.820,152.714 67.819,153.968 67.791 C 155.223 67.763,154.150 67.740,151.583 67.740 C 149.017 67.740,147.990 67.763,149.302 67.791 M174.125 67.791 C 175.340 67.820,177.327 67.820,178.542 67.791 C 179.756 67.763,178.762 67.739,176.333 67.739 C 173.904 67.739,172.910 67.763,174.125 67.791 M197.129 67.789 C 197.521 67.824,198.121 67.824,198.463 67.788 C 198.804 67.752,198.483 67.723,197.750 67.724 C 197.017 67.724,196.737 67.754,197.129 67.789 M216.621 67.787 C 216.917 67.824,217.442 67.824,217.788 67.788 C 218.134 67.752,217.892 67.722,217.250 67.721 C 216.608 67.721,216.325 67.750,216.621 67.787 M143.070 75.167 C 143.070 77.046,143.095 77.815,143.124 76.875 C 143.154 75.935,143.154 74.398,143.124 73.458 C 143.095 72.519,143.070 73.287,143.070 75.167 M368.083 93.770 C 366.668 93.946,365.861 94.204,365.528 94.586 C 364.160 96.161,365.718 97.525,369.042 97.662 C 369.110 97.664,369.167 99.748,369.167 102.292 C 369.168 108.097,369.333 108.478,371.681 108.081 C 372.842 107.885,372.902 107.616,372.965 102.307 L 373.019 97.697 373.998 97.584 C 375.783 97.376,375.666 97.087,375.671 101.720 C 375.676 107.409,375.868 108.000,377.704 108.000 C 378.273 108.000,378.898 107.889,379.195 107.735 C 379.604 107.524,379.845 107.505,380.395 107.641 C 384.472 108.651,385.625 108.209,385.835 105.558 C 386.004 103.434,386.180 103.623,386.434 106.201 C 386.598 107.859,387.464 108.481,388.974 108.027 C 390.057 107.701,390.063 107.668,390.137 101.785 C 390.237 93.914,390.201 93.774,388.083 93.768 C 385.272 93.760,384.518 94.368,384.312 96.809 C 384.239 97.679,384.125 98.734,384.060 99.154 L 383.941 99.917 383.733 99.215 C 383.500 98.429,383.374 98.242,382.402 97.251 C 381.859 96.699,381.697 96.391,381.609 95.747 C 381.479 94.797,381.136 94.210,380.591 94.003 C 380.205 93.856,369.056 93.648,368.083 93.770 M374.333 94.500 C 375.837 94.894,376.990 94.918,378.277 94.583 C 380.081 94.113,380.549 94.463,381.223 96.785 C 381.475 97.656,381.830 98.490,382.042 98.714 C 382.557 99.256,383.000 99.819,383.000 99.930 C 383.000 100.105,383.873 101.167,384.018 101.167 C 384.247 101.167,384.667 100.015,384.667 99.387 C 384.667 96.502,386.243 94.167,388.190 94.167 C 388.527 94.167,389.484 95.126,389.597 95.579 C 389.779 96.303,389.567 105.726,389.355 106.377 C 388.684 108.430,387.427 107.705,386.825 104.917 C 386.627 104.000,386.369 103.065,386.250 102.838 L 386.035 102.426 385.768 103.067 C 385.620 103.419,385.501 103.792,385.502 103.895 C 385.532 106.486,384.120 107.865,382.500 106.826 C 382.087 106.562,381.525 106.241,381.250 106.113 C 380.311 105.675,380.116 105.291,379.753 103.167 L 379.540 101.917 379.520 102.860 C 379.509 103.379,379.351 104.279,379.169 104.860 C 378.987 105.441,378.837 106.040,378.835 106.192 C 378.834 106.343,378.535 106.622,378.171 106.812 L 377.508 107.157 377.106 106.787 C 376.539 106.265,376.333 104.701,376.333 100.918 C 376.333 96.757,376.195 96.486,374.272 96.862 C 372.467 97.214,372.533 97.026,372.471 101.980 C 372.418 106.145,372.407 106.272,372.036 106.743 C 371.278 107.706,371.084 107.748,370.379 107.102 L 369.750 106.526 369.690 102.096 C 369.658 99.660,369.569 97.667,369.493 97.667 C 369.418 97.667,369.311 97.526,369.257 97.354 C 369.189 97.142,368.933 97.005,368.464 96.930 C 367.777 96.820,366.530 96.238,366.294 95.917 C 365.327 94.600,370.940 93.611,374.333 94.500 M147.375 94.917 C 147.377 95.283,147.411 95.414,147.451 95.206 C 147.491 94.999,147.490 94.699,147.448 94.540 C 147.406 94.380,147.374 94.550,147.375 94.917 M143.066 108.333 C 143.066 109.662,143.092 110.206,143.124 109.542 C 143.155 108.877,143.155 107.790,143.124 107.125 C 143.092 106.460,143.066 107.004,143.066 108.333 M97.872 109.000 C 97.872 109.321,97.906 109.452,97.948 109.292 C 97.990 109.131,97.990 108.869,97.948 108.708 C 97.906 108.548,97.872 108.679,97.872 109.000 M233.383 113.000 C 233.383 113.504,233.415 113.710,233.453 113.458 C 233.491 113.206,233.491 112.794,233.453 112.542 C 233.415 112.290,233.383 112.496,233.383 113.000 M102.205 113.333 C 102.205 113.654,102.240 113.785,102.282 113.625 C 102.323 113.465,102.323 113.202,102.282 113.042 C 102.240 112.881,102.205 113.013,102.205 113.333 " stroke="none" fill="#54646c" fill-rule="evenodd"></path><path id="path3" d="M278.333 0.583 C 278.333 0.904,278.390 1.171,278.458 1.177 C 278.527 1.183,278.809 1.211,279.086 1.238 C 279.575 1.287,279.586 1.272,279.526 0.644 C 279.436 -0.309,278.333 -0.365,278.333 0.583 M16.167 10.083 C 16.167 10.577,16.346 10.613,16.724 10.195 C 17.101 9.779,17.071 9.667,16.583 9.667 C 16.250 9.667,16.167 9.750,16.167 10.083 M31.167 44.531 L 31.167 45.062 31.667 44.583 C 31.942 44.320,32.167 44.081,32.167 44.052 C 32.167 44.023,31.942 44.000,31.667 44.000 C 31.216 44.000,31.167 44.052,31.167 44.531 M150.857 44.309 C 151.263 44.960,151.667 45.056,151.667 44.501 C 151.667 44.055,151.612 44.000,151.165 44.000 C 150.719 44.000,150.685 44.034,150.857 44.309 M263.500 50.918 C 263.500 51.293,263.534 51.315,263.830 51.130 C 264.344 50.809,264.384 50.500,263.911 50.500 C 263.583 50.500,263.500 50.585,263.500 50.918 M173.167 63.750 C 173.167 64.244,173.346 64.280,173.724 63.862 C 174.101 63.445,174.071 63.333,173.583 63.333 C 173.250 63.333,173.167 63.417,173.167 63.750 M181.667 87.531 L 181.667 88.062 182.167 87.583 C 182.442 87.320,182.667 87.081,182.667 87.052 C 182.667 87.023,182.442 87.000,182.167 87.000 C 181.716 87.000,181.667 87.052,181.667 87.531 M146.640 95.167 L 146.117 95.667 146.725 95.667 C 147.290 95.667,147.333 95.631,147.333 95.167 C 147.333 94.892,147.295 94.667,147.248 94.667 C 147.202 94.667,146.928 94.892,146.640 95.167 M388.021 96.313 C 387.895 96.805,387.639 97.361,387.453 97.547 C 387.151 97.849,387.137 97.942,387.326 98.402 C 387.786 99.521,387.999 100.633,388.121 102.565 L 388.248 104.583 388.357 101.000 C 388.417 99.029,388.417 96.967,388.358 96.417 L 388.250 95.418 388.021 96.313 M370.934 96.097 C 370.778 96.504,370.838 104.373,371.000 104.750 C 371.085 104.947,371.148 103.196,371.155 100.458 C 371.166 95.957,371.146 95.547,370.934 96.097 M379.393 97.416 C 379.246 97.730,379.251 97.863,379.415 97.999 C 379.684 98.222,379.818 97.906,379.680 97.379 L 379.583 97.009 379.393 97.416 M97.037 108.694 C 97.206 109.203,97.833 109.394,97.833 108.937 C 97.833 108.578,97.756 108.500,97.403 108.500 C 97.149 108.500,96.999 108.580,97.037 108.694 " stroke="none" fill="#e4ecec" fill-rule="evenodd"></path><path id="path4" d="M7.667 0.486 C 7.667 1.011,7.334 1.084,4.333 1.211 L 3.417 1.250 3.372 1.833 C 3.274 3.098,3.252 3.124,2.168 3.250 L 1.167 3.366 1.167 4.350 L 1.167 5.333 0.583 5.333 L 0.000 5.333 0.000 22.500 L 0.000 39.667 0.471 39.667 L 0.942 39.667 1.179 41.443 C 1.478 43.681,1.588 43.787,3.773 43.940 L 5.296 44.047 5.404 45.008 C 5.548 46.274,4.347 46.167,18.397 46.167 C 32.177 46.167,31.167 46.267,31.167 44.897 L 31.167 44.028 33.153 43.972 C 35.475 43.907,35.346 43.983,35.457 42.607 C 35.543 41.537,35.547 41.528,36.106 41.423 C 36.697 41.312,37.068 40.895,37.257 40.125 C 37.319 39.873,37.436 39.667,37.518 39.667 C 37.600 39.667,37.667 38.660,37.667 37.430 L 37.667 35.193 38.230 35.007 C 39.695 34.523,39.927 32.223,38.562 31.711 C 38.299 31.612,37.933 31.475,37.750 31.406 C 37.567 31.337,37.372 31.289,37.316 31.299 C 37.261 31.309,37.249 31.143,37.290 30.930 C 37.433 30.180,36.927 29.556,35.993 29.332 C 34.914 29.073,30.796 29.261,30.139 29.599 C 29.683 29.833,29.218 30.845,29.417 31.168 C 29.476 31.263,29.425 31.321,29.304 31.296 C 29.151 31.264,29.080 31.456,29.072 31.917 C 29.048 33.359,29.062 33.333,28.322 33.333 C 27.214 33.333,27.000 33.537,27.000 34.589 L 27.000 35.500 21.583 35.500 L 16.167 35.500 16.167 34.844 C 16.167 33.533,15.958 33.291,14.915 33.393 L 14.000 33.483 14.000 31.247 L 14.000 29.011 25.658 28.964 C 34.712 28.927,37.363 28.870,37.525 28.708 C 37.640 28.594,37.864 28.500,38.024 28.500 C 38.488 28.500,39.096 27.818,39.436 26.917 C 39.725 26.150,39.750 25.541,39.750 19.317 C 39.750 11.708,39.813 12.075,38.482 11.899 L 37.667 11.790 37.667 9.166 C 37.667 5.476,37.686 5.538,36.480 5.401 L 35.500 5.290 35.497 4.520 C 35.494 3.483,35.402 3.386,34.292 3.248 L 33.333 3.128 33.333 2.470 C 33.333 1.333,33.147 1.167,31.869 1.165 C 29.602 1.162,29.000 1.018,29.000 0.477 L 29.000 0.000 18.333 0.000 L 7.667 0.000 7.667 0.486 M55.500 0.481 C 55.500 1.048,55.219 1.161,53.805 1.164 C 52.172 1.168,51.022 1.833,50.953 2.813 C 50.933 3.097,50.822 3.365,50.706 3.410 C 50.563 3.465,50.514 3.779,50.551 4.394 L 50.605 5.298 49.639 5.368 C 48.375 5.459,48.416 5.378,48.418 7.762 L 48.419 9.830 47.768 9.959 C 46.615 10.187,46.432 10.633,46.424 13.243 C 46.414 16.293,46.079 16.135,52.592 16.154 C 57.383 16.169,57.000 16.374,57.000 13.800 L 57.000 11.833 57.883 11.833 C 58.988 11.833,59.167 11.654,59.167 10.550 L 59.167 9.667 63.565 9.667 L 67.963 9.667 68.068 10.227 C 68.196 10.908,68.637 11.335,69.367 11.485 C 69.873 11.588,69.923 11.658,70.030 12.407 C 70.172 13.399,70.419 13.665,71.310 13.785 L 72.000 13.877 72.000 16.104 L 72.000 18.330 63.458 18.373 L 54.917 18.417 54.953 18.917 C 54.978 19.250,54.950 19.321,54.870 19.131 C 54.696 18.716,54.030 19.083,53.514 19.879 C 53.121 20.485,53.085 20.500,52.089 20.500 C 50.900 20.500,50.667 20.667,50.667 21.520 C 50.667 22.462,50.533 22.667,49.917 22.667 C 48.680 22.667,48.249 23.923,48.415 27.046 C 48.511 28.868,48.488 28.917,47.426 29.059 C 46.333 29.205,46.338 29.191,46.338 32.167 C 46.338 35.145,46.337 35.140,47.522 35.407 L 48.417 35.609 48.430 37.846 C 48.447 40.727,48.643 41.357,49.584 41.561 C 49.950 41.641,50.344 41.732,50.458 41.764 C 50.589 41.801,50.667 42.129,50.667 42.641 C 50.667 43.801,50.852 43.904,53.067 43.975 L 54.917 44.033 54.917 44.939 C 54.917 45.563,54.994 45.895,55.167 46.004 C 55.321 46.101,61.481 46.147,71.250 46.123 L 87.083 46.083 87.133 27.500 C 87.196 4.414,87.268 5.500,85.667 5.500 L 85.000 5.500 85.000 4.739 C 85.000 3.614,84.791 3.334,83.952 3.331 C 83.031 3.327,82.906 3.223,82.768 2.342 C 82.601 1.275,82.456 1.167,81.188 1.165 C 78.936 1.162,78.333 1.017,78.333 0.477 L 78.333 0.000 66.917 0.000 L 55.500 0.000 55.500 0.481 M106.667 0.476 C 106.667 0.990,105.943 1.167,103.846 1.167 C 102.766 1.167,102.402 1.472,102.267 2.494 L 102.155 3.333 101.369 3.336 C 100.216 3.340,100.099 3.469,100.070 4.766 C 100.046 5.851,100.028 5.893,99.501 6.166 C 98.761 6.549,98.274 7.398,98.708 7.547 C 98.823 7.586,98.756 7.592,98.561 7.561 C 98.365 7.529,98.130 7.596,98.038 7.710 C 97.825 7.974,97.793 19.554,98.004 20.250 C 98.087 20.525,98.196 20.955,98.247 21.206 C 98.355 21.741,98.990 22.208,99.645 22.233 C 100.074 22.249,100.111 22.305,100.147 23.000 C 100.219 24.406,100.712 24.661,103.375 24.665 C 104.017 24.666,104.341 24.735,104.357 24.875 C 104.370 24.990,104.389 25.458,104.399 25.917 L 104.417 26.750 105.517 26.799 L 106.618 26.847 106.814 27.501 C 107.027 28.214,107.531 28.667,108.111 28.667 C 108.314 28.667,108.527 28.742,108.583 28.833 C 108.640 28.925,109.169 29.000,109.760 29.000 L 110.833 29.000 110.833 29.678 C 110.833 30.796,111.012 30.965,112.335 31.095 C 113.363 31.196,113.527 31.261,113.710 31.632 C 114.037 32.299,114.806 32.806,115.022 32.497 C 115.155 32.307,115.173 32.347,115.100 32.667 C 115.048 32.896,115.004 33.627,115.002 34.292 L 115.000 35.500 111.833 35.500 L 108.667 35.500 108.667 33.615 C 108.667 31.289,108.561 31.084,107.438 31.221 C 106.494 31.337,106.167 31.234,106.167 30.823 C 106.167 29.418,104.641 28.958,101.110 29.299 C 99.048 29.498,97.563 30.569,98.506 31.177 C 98.690 31.296,98.648 31.324,98.333 31.292 L 97.917 31.250 97.904 35.083 C 97.889 39.750,97.868 39.667,99.079 39.667 L 100.000 39.667 100.014 40.208 C 100.117 44.251,99.882 43.899,102.525 43.973 L 104.535 44.029 104.424 44.920 C 104.259 46.236,103.717 46.168,114.281 46.157 C 125.765 46.144,125.667 46.158,125.667 44.635 L 125.667 44.000 126.511 44.000 C 127.794 44.000,128.000 43.826,128.000 42.744 L 128.000 41.833 128.911 41.833 C 129.993 41.833,130.167 41.627,130.167 40.344 L 130.167 39.500 130.718 39.500 C 132.145 39.500,132.323 38.656,132.317 31.917 C 132.312 24.987,132.283 24.841,130.895 24.836 L 130.207 24.833 130.135 23.837 C 130.047 22.627,130.086 22.669,128.934 22.550 C 128.008 22.454,128.000 22.449,128.000 21.904 C 128.000 20.705,127.795 20.500,126.595 20.500 L 125.516 20.500 125.192 19.769 C 124.938 19.195,124.739 18.995,124.268 18.839 C 123.937 18.730,123.667 18.572,123.667 18.487 C 123.667 18.403,123.183 18.333,122.591 18.333 L 121.515 18.333 121.413 17.708 C 121.357 17.365,121.297 16.973,121.279 16.838 C 121.219 16.377,120.455 16.172,118.792 16.169 L 117.167 16.167 117.167 15.270 C 117.167 14.205,116.948 13.962,116.089 14.069 C 115.004 14.203,115.000 14.195,115.000 11.816 L 115.000 9.667 117.148 9.667 L 119.295 9.667 119.439 10.625 L 119.583 11.583 120.542 11.735 C 121.228 11.844,121.505 11.962,121.518 12.152 C 121.528 12.298,121.547 13.144,121.560 14.033 C 121.592 16.247,121.159 16.074,126.832 16.134 C 132.995 16.200,132.367 16.702,132.300 11.758 C 132.255 8.367,132.222 8.003,131.931 7.683 C 131.756 7.489,131.529 7.163,131.427 6.958 C 131.324 6.752,131.002 6.434,130.710 6.250 C 130.227 5.946,130.179 5.840,130.173 5.053 C 130.163 3.650,129.971 3.334,129.129 3.331 C 128.185 3.327,128.070 3.226,127.944 2.278 C 127.795 1.167,127.795 1.167,126.448 1.165 C 124.100 1.162,123.500 1.022,123.500 0.477 L 123.500 0.000 115.083 0.000 L 106.667 0.000 106.667 0.476 M143.112 17.529 C 143.130 28.216,143.203 35.192,143.300 35.404 C 143.387 35.594,143.544 35.962,143.648 36.222 C 143.772 36.527,144.072 36.792,144.501 36.972 C 145.207 37.268,145.280 37.517,145.183 39.306 C 145.166 39.611,145.217 39.822,145.296 39.773 C 145.375 39.724,145.407 39.904,145.368 40.173 C 145.206 41.276,146.079 42.068,147.150 41.790 C 147.370 41.733,147.417 41.878,147.417 42.624 C 147.417 43.890,147.612 44.000,149.857 44.000 L 151.651 44.000 151.700 45.042 L 151.750 46.083 160.292 46.083 L 168.833 46.083 168.833 48.270 L 168.833 50.458 167.990 50.539 C 166.923 50.641,166.811 50.762,166.778 51.856 L 166.750 52.750 166.000 52.786 C 165.075 52.830,164.667 53.258,164.667 54.185 L 164.667 54.833 160.258 54.833 L 155.849 54.833 155.800 53.792 L 155.750 52.750 155.167 52.731 C 153.693 52.684,153.833 52.885,153.833 50.822 C 153.833 48.107,154.380 48.357,148.510 48.389 C 142.538 48.422,143.080 48.164,143.094 50.967 C 143.112 54.270,143.292 54.667,144.775 54.667 C 145.151 54.667,145.167 54.719,145.187 55.958 C 145.198 56.669,145.217 57.625,145.229 58.083 L 145.250 58.917 146.292 58.966 L 147.333 59.016 147.354 59.633 C 147.366 59.972,147.372 60.450,147.367 60.695 C 147.362 60.940,147.465 61.182,147.596 61.232 C 147.726 61.282,147.833 61.440,147.833 61.584 C 147.833 62.056,148.350 62.646,148.930 62.838 C 149.244 62.941,149.500 63.095,149.500 63.180 C 149.500 63.266,150.447 63.333,151.645 63.333 L 153.791 63.333 153.871 64.170 C 154.002 65.528,153.721 65.491,163.921 65.496 C 173.727 65.501,173.276 65.567,173.081 64.148 L 172.969 63.333 175.526 63.332 C 179.175 63.331,179.491 63.202,179.498 61.708 C 179.500 61.183,179.521 61.167,180.208 61.164 C 181.591 61.160,181.667 61.094,181.667 59.897 C 181.667 58.906,181.692 58.833,182.042 58.831 C 182.774 58.827,183.184 58.617,183.465 58.104 C 183.730 57.619,183.753 55.591,183.794 28.792 L 183.839 -0.000 176.443 0.000 L 169.046 0.000 168.941 0.875 C 168.884 1.356,168.834 8.500,168.831 16.750 L 168.826 31.750 168.290 32.000 C 167.587 32.328,167.138 33.096,167.500 33.351 C 167.692 33.486,167.644 33.504,167.295 33.428 C 166.771 33.314,166.640 33.610,166.710 34.750 L 166.750 35.417 164.553 35.463 L 162.355 35.510 162.241 34.747 C 162.097 33.791,161.876 33.569,160.925 33.427 L 160.167 33.313 160.167 16.656 L 160.167 0.000 151.625 -0.000 L 143.083 -0.000 143.112 17.529 M233.443 0.875 C 233.303 2.047,233.301 110.899,233.440 112.544 L 233.549 113.833 238.858 113.833 L 244.167 113.833 244.167 112.252 L 244.167 110.671 244.859 110.560 C 246.116 110.359,246.167 110.221,246.167 107.003 C 246.167 103.841,246.066 104.086,247.413 103.962 C 248.210 103.889,248.328 103.431,248.331 100.396 L 248.333 97.710 249.164 97.599 C 250.338 97.444,250.397 97.278,250.471 93.958 C 250.533 91.193,250.537 91.167,250.909 91.167 C 252.396 91.167,252.509 90.923,252.623 87.477 L 252.714 84.704 253.380 84.615 C 254.579 84.454,254.833 83.686,254.833 80.227 L 254.833 78.167 255.311 78.167 C 256.563 78.167,257.000 77.001,257.000 73.657 L 257.000 71.704 257.560 71.599 C 258.723 71.381,259.030 70.549,259.121 67.375 C 259.174 65.554,259.228 65.167,259.434 65.167 C 260.709 65.167,261.333 63.671,261.333 60.612 L 261.333 58.509 261.840 58.247 C 262.118 58.103,262.469 57.726,262.620 57.409 C 262.772 57.092,262.986 56.833,263.096 56.833 C 263.446 56.833,263.500 56.378,263.500 53.403 C 263.500 50.166,263.410 50.386,264.688 50.483 C 265.586 50.551,265.667 50.263,265.667 46.988 L 265.667 44.000 266.403 44.000 C 267.730 44.000,267.667 44.165,267.667 40.732 L 267.667 37.667 268.322 37.667 C 268.683 37.667,269.171 37.594,269.406 37.504 L 269.833 37.342 269.833 34.275 L 269.833 31.208 270.765 31.131 C 272.001 31.028,271.994 31.048,271.997 27.625 L 272.000 24.667 272.821 24.667 C 274.142 24.667,274.167 24.604,274.167 21.261 L 274.167 18.380 275.029 18.278 C 276.260 18.132,276.243 18.178,276.305 14.847 L 276.360 11.877 277.209 11.776 C 278.428 11.632,278.410 11.683,278.474 8.242 L 278.532 5.167 279.081 5.167 C 280.528 5.167,281.212 1.649,279.852 1.200 C 279.702 1.150,279.665 1.196,279.747 1.328 C 279.845 1.486,279.795 1.491,279.531 1.350 C 278.968 1.049,278.716 1.150,279.143 1.506 C 279.547 1.841,279.449 1.954,279.000 1.670 C 278.819 1.556,278.719 1.591,278.637 1.798 C 278.533 2.058,278.522 2.057,278.512 1.780 C 278.505 1.613,278.387 1.364,278.250 1.226 C 278.112 1.089,278.000 0.757,278.000 0.488 L 278.000 0.000 255.773 0.000 L 233.546 0.000 233.443 0.875 M293.632 0.792 C 293.507 4.315,293.604 7.209,293.853 7.391 C 293.997 7.497,294.236 7.817,294.383 8.102 C 294.530 8.387,294.879 8.714,295.159 8.830 C 295.731 9.067,295.724 9.029,295.680 11.559 C 295.636 14.087,296.220 15.515,297.389 15.734 L 297.917 15.833 297.934 17.958 C 297.961 21.167,298.188 21.843,299.353 22.192 C 300.000 22.386,300.000 22.386,300.023 23.318 C 300.035 23.831,300.063 24.887,300.083 25.667 C 300.140 27.775,300.392 28.359,301.375 28.654 L 302.167 28.892 302.184 29.988 C 302.258 34.678,302.336 34.958,303.641 35.216 L 304.333 35.353 304.363 36.801 C 304.445 40.790,304.463 40.963,304.833 41.333 C 305.038 41.538,305.389 41.667,305.740 41.667 C 306.495 41.667,306.480 41.623,306.507 44.013 C 306.548 47.657,306.729 48.167,307.986 48.167 L 308.639 48.167 308.695 51.078 C 308.758 54.394,308.791 54.480,310.056 54.622 L 310.812 54.708 310.864 57.598 C 310.924 60.888,310.962 60.988,312.178 61.047 L 312.917 61.083 312.866 61.750 C 312.838 62.117,312.880 63.491,312.960 64.804 C 313.117 67.384,313.161 67.491,314.083 67.500 C 314.976 67.509,314.996 67.567,315.065 70.445 C 315.135 73.334,315.249 73.777,315.963 73.921 C 316.213 73.971,316.599 74.066,316.821 74.131 L 317.225 74.250 317.254 77.052 C 317.286 80.244,317.313 80.316,318.566 80.457 L 319.333 80.543 319.351 81.313 C 319.360 81.737,319.381 83.031,319.397 84.188 C 319.431 86.622,319.493 86.755,320.675 86.918 L 321.500 87.031 321.519 88.224 C 321.529 88.880,321.548 90.174,321.561 91.099 C 321.587 93.074,321.690 93.259,322.842 93.418 L 323.667 93.531 323.689 95.057 C 323.701 95.897,323.720 97.208,323.731 97.971 C 323.753 99.587,323.936 99.833,325.115 99.833 L 325.833 99.833 325.854 101.625 C 325.908 106.468,325.813 106.121,327.138 106.278 L 328.000 106.380 328.027 108.232 C 328.042 109.250,328.061 110.605,328.069 111.243 C 328.085 112.561,328.331 112.826,329.542 112.831 C 330.124 112.833,330.167 112.867,330.167 113.333 L 330.167 113.833 338.750 113.833 L 347.333 113.833 347.332 57.792 C 347.331 26.969,347.283 1.356,347.225 0.875 L 347.120 0.000 321.560 0.000 L 296.000 0.000 296.000 0.500 C 296.000 1.178,295.672 1.139,295.645 0.458 L 295.623 -0.083 295.500 0.500 L 295.377 1.083 295.355 0.542 C 295.334 0.005,295.325 -0.000,294.497 -0.000 L 293.661 -0.000 293.632 0.792 M358.500 0.583 C 358.500 0.904,358.425 1.167,358.333 1.167 C 358.223 1.167,358.167 20.056,358.167 57.500 L 358.167 113.833 378.592 113.833 L 399.017 113.833 398.963 102.208 C 398.900 88.661,399.003 89.484,397.333 89.297 L 396.917 89.250 396.814 85.417 C 396.757 83.308,396.701 81.495,396.689 81.387 C 396.641 80.961,396.125 80.667,395.426 80.667 L 394.709 80.667 394.635 76.792 C 394.550 72.285,394.534 72.227,393.330 72.067 L 392.500 71.957 392.486 68.937 C 392.463 64.001,392.325 63.500,390.988 63.500 L 390.373 63.500 390.307 59.694 C 390.231 55.262,390.183 55.098,388.920 54.908 L 388.167 54.795 388.153 51.773 C 388.130 46.845,388.046 46.521,386.764 46.376 L 386.000 46.290 385.999 43.270 C 385.998 38.576,385.835 37.983,384.497 37.769 L 383.833 37.663 383.833 34.604 C 383.833 30.065,383.648 29.389,382.356 29.215 L 381.667 29.123 381.667 26.084 C 381.667 21.612,381.472 20.884,380.220 20.681 L 379.583 20.578 379.490 16.998 C 379.379 12.712,379.273 12.353,378.049 12.091 L 377.514 11.977 377.456 8.863 C 377.378 4.733,377.102 3.795,375.894 3.568 L 375.333 3.463 375.333 2.315 C 375.333 1.660,375.262 1.167,375.167 1.167 C 375.075 1.167,375.000 0.904,375.000 0.583 L 375.000 0.000 366.750 0.000 L 358.500 0.000 358.500 0.583 M20.500 10.649 C 20.500 11.771,20.570 11.833,21.847 11.833 L 22.667 11.833 22.667 15.083 L 22.667 18.333 18.333 18.333 L 14.000 18.333 14.000 15.935 L 14.000 13.536 14.458 13.422 C 15.076 13.268,15.460 12.895,15.584 12.330 C 15.641 12.072,15.800 11.818,15.938 11.765 C 16.075 11.712,16.175 11.537,16.158 11.376 C 16.142 11.215,16.137 10.765,16.147 10.375 L 16.167 9.667 18.333 9.667 L 20.500 9.667 20.500 10.649 M285.021 11.986 C 283.839 12.081,283.577 12.157,283.313 12.484 C 282.934 12.952,282.927 13.048,282.862 18.292 L 282.833 20.667 282.356 20.667 C 281.235 20.667,280.646 21.946,280.709 24.250 C 280.721 24.708,280.717 25.956,280.699 27.022 L 280.667 28.962 279.753 29.076 C 278.600 29.220,278.587 29.244,278.564 31.250 C 278.509 36.091,278.694 35.465,277.229 35.758 C 276.687 35.867,276.440 36.710,276.404 38.570 C 276.386 39.494,276.363 40.643,276.353 41.123 L 276.333 41.996 275.674 42.101 C 274.544 42.282,274.077 43.570,274.231 46.088 C 274.346 47.987,274.218 48.475,273.573 48.596 C 272.423 48.812,271.923 50.361,272.065 53.260 L 272.147 54.936 271.412 55.133 C 270.230 55.449,269.705 57.252,269.871 60.431 C 269.917 61.311,269.897 61.937,269.826 61.822 C 269.559 61.389,268.676 61.983,268.238 62.890 C 267.680 64.047,267.615 68.782,268.150 69.317 C 268.655 69.822,270.064 69.857,287.452 69.802 C 302.743 69.753,303.672 69.733,303.952 69.452 C 304.220 69.185,304.250 68.787,304.250 65.520 C 304.250 61.337,304.249 61.333,302.993 61.333 L 302.194 61.333 302.138 58.359 C 302.075 54.914,302.045 54.833,300.826 54.833 L 300.027 54.833 299.972 51.841 C 299.910 48.466,299.919 48.491,298.676 48.372 L 297.833 48.291 297.833 45.468 C 297.833 42.223,297.769 42.000,296.841 42.000 C 295.623 42.000,295.667 42.113,295.667 38.971 C 295.667 35.570,295.641 35.500,294.411 35.500 L 293.500 35.500 293.500 32.461 C 293.500 28.847,293.221 27.925,291.977 27.427 L 291.333 27.169 291.333 24.097 C 291.333 20.541,291.318 20.500,289.988 20.500 L 289.167 20.500 289.167 16.938 C 289.167 13.076,289.098 12.396,288.686 12.180 C 288.258 11.955,286.539 11.864,285.021 11.986 M72.000 31.167 C 72.000 33.573,72.106 33.383,70.750 33.406 L 70.083 33.417 69.929 34.458 L 69.775 35.500 67.728 35.500 L 65.682 35.500 65.576 34.875 C 65.518 34.531,65.434 34.114,65.388 33.949 C 65.291 33.599,64.688 33.333,63.989 33.333 L 63.500 33.333 63.500 32.167 L 63.500 31.000 64.135 31.000 C 65.030 31.000,65.351 30.704,65.455 29.782 L 65.543 29.000 68.772 29.000 L 72.000 29.000 72.000 31.167 M67.753 58.040 C 67.694 58.614,67.670 61.052,67.698 63.459 L 67.750 67.834 64.704 67.792 C 62.145 67.757,61.633 67.790,61.501 68.000 C 61.411 68.145,61.360 70.353,61.381 73.250 L 61.417 78.250 64.528 78.295 L 67.639 78.341 67.694 93.184 C 67.757 109.987,67.619 108.500,69.115 108.500 L 69.833 108.500 69.833 109.242 C 69.833 111.859,70.498 112.556,73.208 112.783 C 74.137 112.860,74.167 112.878,74.167 113.348 L 74.167 113.833 81.667 113.833 L 89.167 113.833 89.167 109.365 C 89.167 103.848,89.348 104.249,86.847 104.254 L 85.000 104.258 85.000 103.494 C 85.000 102.435,84.735 102.140,83.695 102.040 L 82.833 101.958 82.833 90.145 L 82.833 78.333 86.000 78.333 L 89.167 78.333 89.164 73.292 C 89.163 70.379,89.094 68.144,89.002 68.000 C 88.869 67.790,88.359 67.757,85.841 67.791 L 82.838 67.833 82.794 62.458 L 82.750 57.083 75.305 57.040 L 67.860 56.997 67.753 58.040 M199.111 57.111 C 199.050 57.172,199.000 59.618,199.000 62.547 L 199.000 67.871 196.539 67.752 C 192.197 67.542,192.478 67.114,192.542 73.833 L 192.583 78.250 195.789 78.295 L 198.995 78.341 199.039 93.079 C 199.088 109.421,198.986 108.176,200.292 108.326 L 201.083 108.417 201.132 109.441 C 201.187 110.573,201.285 110.660,202.522 110.664 L 203.128 110.667 203.248 111.625 C 203.388 112.752,203.474 112.827,204.625 112.831 C 205.486 112.833,205.500 112.842,205.500 113.333 L 205.500 113.833 213.010 113.833 L 220.520 113.833 220.468 109.258 C 220.408 103.916,220.534 104.259,218.616 104.228 C 217.865 104.215,217.006 104.197,216.708 104.186 L 216.167 104.167 216.167 91.250 L 216.167 78.333 218.342 78.333 L 220.518 78.333 220.467 73.160 C 220.408 67.076,220.652 67.618,218.042 67.770 L 216.167 67.879 216.159 63.314 C 216.152 58.662,216.047 57.404,215.644 57.149 C 215.380 56.982,199.277 56.945,199.111 57.111 M106.431 67.976 C 106.148 68.101,105.748 68.282,105.541 68.380 C 105.335 68.477,105.039 68.844,104.884 69.195 L 104.603 69.833 103.510 69.853 C 102.908 69.864,102.004 69.862,101.500 69.848 C 100.295 69.816,100.128 69.953,100.037 71.051 C 99.954 72.060,99.618 72.282,98.508 72.060 C 97.921 71.942,97.723 72.411,97.899 73.508 L 98.004 74.167 97.200 74.167 C 95.745 74.167,95.728 74.226,95.679 79.592 L 95.667 80.933 95.082 81.145 C 93.793 81.611,93.632 83.015,93.700 93.197 C 93.757 101.565,93.730 101.385,94.946 101.691 L 95.667 101.873 95.698 103.478 C 95.716 104.361,95.734 105.758,95.740 106.583 C 95.751 108.171,95.858 108.533,96.306 108.489 C 96.459 108.474,96.894 108.470,97.275 108.481 L 97.966 108.500 97.967 110.151 C 97.968 112.708,97.868 112.610,100.625 112.779 L 102.333 112.884 102.333 113.358 L 102.333 113.833 116.083 113.833 L 129.833 113.833 129.833 113.333 C 129.833 112.838,129.843 112.833,130.750 112.833 C 131.986 112.833,132.333 112.493,132.333 111.282 L 132.333 110.397 133.042 110.240 C 134.108 110.004,134.230 109.625,134.305 106.333 L 134.368 103.583 134.888 103.333 C 136.180 102.713,136.177 101.260,134.883 100.684 C 134.595 100.556,134.323 100.313,134.279 100.144 C 134.204 99.855,133.958 99.840,130.058 99.877 C 125.394 99.922,125.912 99.749,125.858 101.280 L 125.833 101.976 124.905 102.092 C 123.878 102.220,123.667 102.476,123.667 103.594 C 123.667 103.939,123.584 104.169,123.458 104.171 C 123.344 104.174,120.906 104.193,118.042 104.213 L 112.833 104.250 112.831 103.417 C 112.827 102.320,112.734 102.209,111.705 102.073 L 110.833 101.957 110.833 99.812 L 110.833 97.667 122.569 97.667 C 129.024 97.667,134.331 97.610,134.361 97.542 C 134.392 97.473,134.703 97.284,135.052 97.123 C 136.380 96.508,136.417 96.273,136.417 88.298 C 136.417 80.447,136.489 80.866,135.101 80.710 L 134.333 80.623 134.333 77.657 C 134.333 74.257,134.301 74.167,133.071 74.167 L 132.333 74.167 132.333 73.270 C 132.333 72.312,132.056 71.879,131.563 72.068 C 130.764 72.375,130.210 72.011,130.125 71.124 C 130.021 70.045,129.716 69.805,128.500 69.844 C 127.996 69.860,127.126 69.864,126.568 69.853 L 125.553 69.833 125.353 69.168 C 124.949 67.819,124.665 67.781,115.015 67.764 C 108.557 67.753,106.844 67.795,106.431 67.976 M145.417 67.833 C 145.445 67.879,145.107 67.891,144.666 67.860 C 143.619 67.786,143.171 68.186,143.157 69.208 C 142.952 83.648,142.994 84.159,144.422 84.519 L 145.167 84.706 145.186 85.561 C 145.197 86.032,145.193 86.867,145.176 87.417 C 145.139 88.701,145.339 88.959,146.500 89.127 L 147.417 89.259 147.372 90.005 C 147.311 91.027,147.477 91.207,148.568 91.297 C 149.571 91.380,149.550 91.354,149.550 92.583 C 149.550 93.508,149.560 93.500,148.446 93.500 L 147.392 93.500 147.404 94.542 L 147.417 95.583 146.333 95.667 L 145.250 95.750 145.239 96.417 C 145.233 96.783,145.214 97.740,145.197 98.542 L 145.167 100.000 144.429 100.000 C 143.527 100.000,143.177 100.309,143.138 101.137 C 143.122 101.474,143.102 104.469,143.094 107.792 L 143.078 113.833 151.622 113.833 L 160.167 113.833 160.167 106.855 L 160.167 99.877 160.917 99.792 C 161.909 99.680,162.139 99.457,162.269 98.478 L 162.378 97.657 164.564 97.704 L 166.750 97.750 166.710 98.417 C 166.630 99.725,166.717 99.833,167.837 99.833 L 168.833 99.833 168.833 106.833 L 168.833 113.833 176.333 113.833 L 183.833 113.833 183.831 105.208 C 183.828 95.329,183.889 95.778,182.545 95.700 L 181.682 95.650 181.633 94.617 L 181.583 93.583 180.542 93.534 L 179.500 93.484 179.500 92.671 C 179.500 92.176,179.404 91.761,179.254 91.611 C 179.037 91.394,179.128 91.351,180.023 91.247 C 181.541 91.071,181.667 90.881,181.667 88.758 L 181.667 87.016 182.708 86.966 L 183.750 86.917 183.790 77.583 C 183.813 72.207,183.766 68.149,183.679 68.012 C 183.512 67.751,169.301 67.643,169.043 67.901 C 168.887 68.058,168.873 68.695,168.851 76.542 L 168.833 82.833 168.115 82.833 C 167.120 82.833,166.772 83.122,166.860 83.877 C 166.901 84.224,166.865 84.436,166.774 84.380 C 166.687 84.326,166.652 84.460,166.695 84.684 C 166.767 85.061,166.732 85.080,166.068 85.026 C 165.138 84.950,164.667 85.390,164.667 86.333 L 164.667 87.000 163.500 87.000 L 162.333 87.000 162.333 86.003 C 162.333 84.867,162.166 84.741,160.869 84.897 L 160.176 84.980 160.129 76.582 C 160.094 70.114,160.035 68.135,159.874 67.974 C 159.667 67.767,145.289 67.627,145.417 67.833 M265.780 76.442 C 265.718 76.504,265.667 76.993,265.667 77.528 L 265.667 78.500 264.756 78.500 C 263.525 78.500,263.500 78.569,263.500 81.983 L 263.500 84.822 262.688 84.930 C 261.290 85.115,261.409 84.691,261.352 89.689 L 261.333 91.295 260.585 91.408 C 259.441 91.579,259.127 92.263,259.204 94.417 C 259.296 96.991,259.178 97.824,258.708 97.929 C 257.737 98.145,257.628 98.217,257.373 98.808 C 257.124 99.382,257.079 99.981,257.020 103.458 C 257.002 104.564,256.971 104.667,256.654 104.667 C 256.242 104.667,255.333 105.526,255.333 105.916 C 255.333 106.067,255.233 106.290,255.111 106.413 C 254.942 106.582,254.882 107.488,254.860 110.234 L 254.832 113.833 287.082 113.833 L 319.333 113.833 319.333 112.484 C 319.333 111.657,319.244 110.964,319.102 110.692 C 318.975 110.449,318.786 110.037,318.682 109.777 C 318.556 109.461,318.273 109.217,317.830 109.043 L 317.167 108.783 317.167 106.568 C 317.167 105.350,317.100 104.312,317.019 104.262 C 316.938 104.211,316.822 103.906,316.761 103.584 C 316.646 102.972,316.239 102.602,315.476 102.414 L 315.035 102.306 314.959 99.778 C 314.861 96.479,314.583 95.833,313.262 95.833 C 312.874 95.833,312.873 95.827,312.803 93.208 C 312.719 90.050,312.588 89.658,311.542 89.426 L 310.833 89.269 310.827 87.343 C 310.817 84.021,310.498 83.097,309.292 82.895 L 308.667 82.791 308.665 80.937 C 308.664 78.775,308.419 77.021,308.069 76.667 C 307.807 76.402,266.042 76.180,265.780 76.442 M115.500 78.644 C 115.500 79.135,116.056 79.715,116.958 80.163 C 117.511 80.439,117.893 80.772,118.103 81.163 C 118.295 81.521,118.612 81.815,118.917 81.917 L 119.417 82.083 119.371 84.542 L 119.324 87.000 115.074 87.000 L 110.824 87.000 110.870 84.720 L 110.917 82.440 111.393 82.313 C 112.094 82.126,112.443 81.736,112.652 80.906 C 112.812 80.272,112.899 80.167,113.265 80.167 C 113.770 80.167,114.667 79.339,114.667 78.874 C 114.667 78.475,114.805 78.333,115.194 78.333 C 115.382 78.333,115.500 78.454,115.500 78.644 M380.591 94.003 C 381.136 94.210,381.479 94.797,381.609 95.747 C 381.697 96.391,381.859 96.699,382.402 97.251 C 383.374 98.242,383.500 98.429,383.733 99.215 L 383.941 99.917 384.060 99.154 C 384.125 98.734,384.239 97.679,384.312 96.809 C 384.518 94.368,385.272 93.760,388.083 93.768 C 390.201 93.774,390.237 93.914,390.137 101.785 C 390.063 107.668,390.057 107.701,388.974 108.027 C 387.464 108.481,386.598 107.859,386.434 106.201 C 386.180 103.623,386.004 103.434,385.835 105.558 C 385.625 108.209,384.472 108.651,380.395 107.641 C 379.845 107.505,379.604 107.524,379.195 107.735 C 378.898 107.889,378.273 108.000,377.704 108.000 C 375.868 108.000,375.676 107.409,375.671 101.720 C 375.666 97.087,375.783 97.376,373.998 97.584 L 373.019 97.697 372.965 102.307 C 372.902 107.616,372.842 107.885,371.681 108.081 C 369.333 108.478,369.168 108.097,369.167 102.292 C 369.167 99.748,369.110 97.664,369.042 97.662 C 364.145 97.460,363.381 94.356,368.083 93.770 C 369.056 93.648,380.205 93.856,380.591 94.003 " stroke="none" fill="#2c4454" fill-rule="evenodd"></path></g></svg>