<?xml version="1.0" encoding="utf-8"?>
<!-- Generator: Adobe Illustrator 27.0.1, SVG Export Plug-In . SVG Version: 6.00 Build 0)  -->
<svg version="1.1" id="Layer_1" xmlns="http://www.w3.org/2000/svg" xmlns:xlink="http://www.w3.org/1999/xlink" x="0px" y="0px"
	 viewBox="0 0 360 360" style="enable-background:new 0 0 360 360;" xml:space="preserve">
<style type="text/css">
	.st0{fill:#F8961D;}
	.st1{fill:#276072;}
</style>
<path class="st0" d="M343.58,98.66c-1.99-21.21-9.79-29-10.33-29.55c-11.42-9.97-24.11,2.36-24.11,2.36
	c-12.33,11.42-24.83,2.9-24.83,2.9l-18.85-19.03h-61.63h-22.48h-1.09h-28.64H96.16L77.31,74.37c0,0-12.51,8.34-24.83-2.9
	c0,0-12.69-12.33-24.11-2.36c-0.73,0.73-8.52,8.52-10.33,29.55c-1.63,32.63,1.09,108.03,58.37,116.37c0,0,12.14,0.91,19.58-6.53l0,0
	c0,0,11.24-8.34,31,4.89l0,0c6.89,4.89,14.68,9.06,23.38,12.51l0,0c0,0,9.43,3.63,9.79,9.43c0,2.72-1.81,5.8-8.16,8.52l0,0
	c-6.89,2.72-11.24,6.34-11.24,10.33c0,2.9,2.18,5.62,6.16,7.98l0,0c0,0,0,0,0.18,0c0.36,0.18,0.73,0.36,1.09,0.54
	c4.53,2.72,3.63,4.71,3.63,4.71c0.18,1.81-1.99,3.26-3.99,4.35c-1.27,1.09-2.9,2.54-2.72,4.35c0,0,0,2.9,3.81,5.98
	c4.17,3.44-0.91,7.43-0.91,7.43c-9.61,6.34-25.56,14.86-44.23,16.86l-8.16,9.79h73.05h24.29H266l-8.16-9.79
	c-20.12-2.18-36.98-11.78-46.4-18.31c-1.09-1.45-2.18-3.81,0.54-5.98c3.81-3.08,3.81-5.98,3.81-5.98c0.18-1.81-1.27-3.44-2.72-4.35
	c-1.99-1.09-4.17-2.54-3.99-4.35c0,0-0.73-1.45,1.99-3.63c5.98-2.54,9.61-5.98,9.61-9.61c0-3.99-4.17-7.61-11.24-10.33l0,0
	c-6.16-2.72-8.16-5.8-8.16-8.52c0.54-5.62,9.79-9.43,9.79-9.43l0,0c8.88-3.44,16.68-7.61,23.38-12.51l0,0
	c19.76-13.23,31-4.89,31-4.89l0,0c7.43,7.25,19.58,6.53,19.58,6.53C342.5,206.88,345.03,131.29,343.58,98.66z M86.37,187.12
	c-4.53,3.26-19.58,10.51-33.35-23.38c0,0-17.4-27.19-12.87-62.17c0,0,1.45-8.88,8.7,1.99c0,0,5.08,10.33,18.67,1.45
	c0,0,6.34-5.8,10.51,16.31l0,0c1.81,13.96,5.26,29.55,11.6,44.59l0,0C95.07,180.59,86.37,187.12,86.37,187.12z M308.6,163.74
	c-13.78,33.71-28.64,26.65-33.35,23.38c0,0-8.7-6.53-3.44-21.21l0,0c6.34-15.04,9.79-30.63,11.6-44.59l0,0
	c4.17-22.11,10.51-16.31,10.51-16.31c13.78,8.88,18.67-1.45,18.67-1.45c7.25-10.88,8.7-1.99,8.7-1.99
	C325.82,136.55,308.6,163.74,308.6,163.74z"/>
<path class="st1" d="M233.38,77.64c-2.36-5.62-19.21-7.25-19.21-7.25h0.18l-14.32-1.99l-6.53-12.87l0,0l0,0l-1.81-3.81
	c-2.54-4.53-7.07-11.78-11.24-12.14c-4.17,0.36-8.52,7.61-11.06,12.14l-8.16,16.68l-13.96,2.18h0.18c0,0-16.86,1.81-19.21,7.43
	c-1.45,5.98,11.24,17.22,11.24,17.22l-0.54-0.18l10.51,10.15l-2.36,14.32l0,0c0,0-3.26,16.49,1.63,20.48
	c3.26,1.81,10.15-0.73,14.86-3.08l4.35-2.36c0.54-0.18,0.73-0.36,0.73-0.36l0,0l12.51-6.71l12.69,6.53l-0.18-0.18
	c0,0,0.54,0.18,1.27,0.73l3.26,1.63c4.71,2.36,11.96,5.26,15.41,3.08c3.63-3.08,2.54-13.23,1.81-17.95l-3.08-16.86l10.15-10.15
	h-0.18C222.32,95.04,234.83,83.8,233.38,77.64z"/>
</svg>
